<?xml version="1.0" encoding="utf-8"?><svg xmlns="http://www.w3.org/2000/svg" xmlns:xlink="http://www.w3.org/1999/xlink"><defs><svg viewBox="0 0 24 24" id="access-time" xmlns="http://www.w3.org/2000/svg"><path d="M11.99 2C6.47 2 2 6.48 2 12s4.47 10 9.99 10C17.52 22 22 17.52 22 12S17.52 2 11.99 2zM12 20c-4.42 0-8-3.58-8-8s3.58-8 8-8 8 3.58 8 8-3.58 8-8 8z"/><path d="M0 0h24v24H0z" fill="none"/><path d="M12.5 7H11v6l5.25 3.15.75-1.23-4.5-2.67z"/></svg><svg viewBox="0 0 24 24" id="add" xmlns="http://www.w3.org/2000/svg"><path fill="none" d="M0 0h24v24H0V0z"/><path d="M19 13h-6v6h-2v-6H5v-2h6V5h2v6h6v2z"/></svg><svg viewBox="0 0 32 32" id="add-tag-custom" xmlns="http://www.w3.org/2000/svg"><path d="M16 5l-.313.281L4.281 16.813l-.687.687.687.719 9.5 9.5.719.687.688-.687 1.218-1.219C17.46 29.688 20.466 32 24 32c4.406 0 8-3.594 8-8 0-3.498-2.268-6.48-5.406-7.563l.125-.125L27 16V5H16zm.844 2H25v8.156l-.844.844H24c-4.406 0-8 3.594-8 8v.094l-1.5 1.5L6.406 17.5 16.844 7zM22 9a1 1 0 100 2 1 1 0 000-2zm2 9c3.326 0 6 2.674 6 6s-2.674 6-6 6-6-2.674-6-6 2.674-6 6-6zm-1 2v3h-3v2h3v3h2v-3h3v-2h-3v-3h-2z"/></svg><svg viewBox="0 0 24 24" id="ads" xmlns="http://www.w3.org/2000/svg"><path d="M20 3l-1 1.285L6 9v6l2.451.889-.283.8c-.213.601.101 1.26.703 1.473l2.178.772a1.156 1.156 0 001.474-.705l.27-.764L19 19.715 20 21h2V3h-2zm0 3.05v11.9l-.318-.116L8 13.598v-3.196l11.682-4.236.318-.115zM2 9v6h2V9H2z"/></svg><svg viewBox="0 0 24 24" id="arrow-back" xmlns="http://www.w3.org/2000/svg"><path fill="none" d="M0 0h24v24H0V0z"/><path d="M20 11H7.83l5.59-5.59L12 4l-8 8 8 8 1.41-1.41L7.83 13H20v-2z"/></svg><svg viewBox="0 0 24 24" id="arrow-downward" xmlns="http://www.w3.org/2000/svg"><path fill="none" d="M0 0h24v24H0V0z"/><path d="M20 12l-1.41-1.41L13 16.17V4h-2v12.17l-5.58-5.59L4 12l8 8 8-8z"/></svg><svg viewBox="0 0 24 24" id="arrow-drop-down" xmlns="http://www.w3.org/2000/svg"><path fill="none" d="M0 0h24v24H0V0z"/><path d="M7 10l5 5 5-5H7z"/></svg><svg viewBox="0 0 24 24" id="assignment" xmlns="http://www.w3.org/2000/svg"><path fill="none" d="M0 0h24v24H0V0z"/><path d="M7 15h7v2H7zm0-4h10v2H7zm0-4h10v2H7zm12-4h-4.18C14.4 1.84 13.3 1 12 1c-1.3 0-2.4.84-2.82 2H5c-.14 0-.27.01-.4.04a2.008 2.008 0 00-1.44 1.19c-.1.23-.16.49-.16.77v14c0 .27.06.54.16.78s.25.45.43.64c.27.27.62.47 1.01.55.13.02.26.03.4.03h14c1.1 0 2-.9 2-2V5c0-1.1-.9-2-2-2zm-7-.25c.41 0 .75.34.75.75s-.34.75-.75.75-.75-.34-.75-.75.34-.75.75-.75zM19 19H5V5h14v14z"/></svg><svg viewBox="0 0 24 24" id="attachment" xmlns="http://www.w3.org/2000/svg"><path fill="none" d="M0 0h24v24H0V0z"/><path d="M18.5 16H7c-2.21 0-4-1.79-4-4s1.79-4 4-4h12.5a2.5 2.5 0 010 5H9c-.55 0-1-.45-1-1s.45-1 1-1h9.5V9.5H9a2.5 2.5 0 000 5h10.5c2.21 0 4-1.79 4-4s-1.79-4-4-4H7c-3.04 0-5.5 2.46-5.5 5.5s2.46 5.5 5.5 5.5h11.5V16z"/></svg><svg viewBox="0 0 32 32" id="box-filled-custom" xmlns="http://www.w3.org/2000/svg"><path style="text-indent:0;text-align:start;line-height:normal;text-transform:none;block-progression:tb;-inkscape-font-specification:Sans" d="M16 4l-5 4h10l-5-4zM8.5 5L5 9.656V27h22V9.656L23.5 5h-5L21 7h1.5L24 9H8l1.5-2H11l2.5-2h-5zM7 11h18v14H7V11zm5.813 2A1.001 1.001 0 0013 15h6a1 1 0 100-2h-6a1 1 0 00-.094 0 1.001 1.001 0 00-.094 0z" overflow="visible" font-family="Sans"/></svg><svg viewBox="0 0 24 24" id="cancel" xmlns="http://www.w3.org/2000/svg"><path d="M12 2C6.47 2 2 6.47 2 12s4.47 10 10 10 10-4.47 10-10S17.53 2 12 2zm5 13.59L15.59 17 12 13.41 8.41 17 7 15.59 10.59 12 7 8.41 8.41 7 12 10.59 15.59 7 17 8.41 13.41 12 17 15.59z"/><path d="M0 0h24v24H0z" fill="none"/></svg><svg viewBox="0 0 24 24" id="check" xmlns="http://www.w3.org/2000/svg"><path fill="none" d="M0 0h24v24H0V0z"/><path d="M9 16.17L4.83 12l-1.42 1.41L9 19 21 7l-1.41-1.41L9 16.17z"/></svg><svg viewBox="0 0 24 24" id="check-circle" xmlns="http://www.w3.org/2000/svg"><path fill="none" d="M0 0h24v24H0V0z"/><path d="M12 2C6.48 2 2 6.48 2 12s4.48 10 10 10 10-4.48 10-10S17.52 2 12 2zm0 18c-4.41 0-8-3.59-8-8s3.59-8 8-8 8 3.59 8 8-3.59 8-8 8zm4.59-12.42L10 14.17l-2.59-2.58L6 13l4 4 8-8z"/></svg><svg viewBox="0 0 24 24" id="chevron-left" xmlns="http://www.w3.org/2000/svg"><path d="M0 0h24v24H0z" fill="none"/><path d="M15.41 7.41L14 6l-6 6 6 6 1.41-1.41L10.83 12z"/></svg><svg viewBox="0 0 24 24" id="chevron-right" xmlns="http://www.w3.org/2000/svg"><path d="M0 0h24v24H0z" fill="none"/><path d="M10 6L8.59 7.41 13.17 12l-4.58 4.59L10 18l6-6z"/></svg><svg viewBox="0 0 24 24" id="clear-all" xmlns="http://www.w3.org/2000/svg"><path fill="none" d="M0 0h24v24H0V0z"/><path d="M5 13h14v-2H5v2zm-2 4h14v-2H3v2zM7 7v2h14V7H7z"/></svg><svg viewBox="0 0 24 24" id="close" xmlns="http://www.w3.org/2000/svg"><path fill="none" d="M0 0h24v24H0V0z"/><path d="M19 6.41L17.59 5 12 10.59 6.41 5 5 6.41 10.59 12 5 17.59 6.41 19 12 13.41 17.59 19 19 17.59 13.41 12 19 6.41z"/></svg><svg viewBox="0 0 24 24" id="code" xmlns="http://www.w3.org/2000/svg"><path fill="none" d="M0 0h24v24H0V0z"/><path d="M9.4 16.6L4.8 12l4.6-4.6L8 6l-6 6 6 6 1.4-1.4zm5.2 0l4.6-4.6-4.6-4.6L16 6l6 6-6 6-1.4-1.4z"/></svg><svg viewBox="0 0 24 24" id="comment" xmlns="http://www.w3.org/2000/svg"><path fill="none" d="M0 0h24v24H0V0z"/><path d="M21.99 4c0-1.1-.89-2-1.99-2H4c-1.1 0-2 .9-2 2v12c0 1.1.9 2 2 2h14l4 4-.01-18zM20 4v13.17L18.83 16H4V4h16zM6 12h12v2H6zm0-3h12v2H6zm0-3h12v2H6z"/></svg><svg viewBox="0 0 24 24" id="create-new-folder" xmlns="http://www.w3.org/2000/svg"><path fill="none" d="M0 0h24v24H0V0z"/><path d="M20 6h-8l-2-2H4c-1.11 0-1.99.89-1.99 2L2 18c0 1.11.89 2 2 2h16c1.11 0 2-.89 2-2V8c0-1.11-.89-2-2-2zm-1 8h-3v3h-2v-3h-3v-2h3V9h2v3h3v2z"/></svg><svg viewBox="0 0 24 24" id="credit-card" xmlns="http://www.w3.org/2000/svg"><path fill="none" d="M0 0h24v24H0V0z"/><path d="M20 4H4c-1.11 0-1.99.89-1.99 2L2 18c0 1.11.89 2 2 2h16c1.11 0 2-.89 2-2V6c0-1.11-.89-2-2-2zm0 14H4v-6h16v6zm0-10H4V6h16v2z"/></svg><svg viewBox="0 0 24 24" id="dashboard" xmlns="http://www.w3.org/2000/svg"><path fill="none" d="M0 0h24v24H0V0z"/><path d="M19 5v2h-4V5h4M9 5v6H5V5h4m10 8v6h-4v-6h4M9 17v2H5v-2h4M21 3h-8v6h8V3zM11 3H3v10h8V3zm10 8h-8v10h8V11zm-10 4H3v6h8v-6z"/></svg><svg viewBox="0 0 24 24" id="date-range" xmlns="http://www.w3.org/2000/svg"><path d="M0 0h24v24H0V0z" fill="none"/><path d="M7 11h2v2H7v-2zm14-5v14c0 1.1-.9 2-2 2H5a2 2 0 01-2-2l.01-14c0-1.1.88-2 1.99-2h1V2h2v2h8V2h2v2h1c1.1 0 2 .9 2 2zM5 8h14V6H5v2zm14 12V10H5v10h14zm-4-7h2v-2h-2v2zm-4 0h2v-2h-2v2z"/></svg><svg viewBox="0 0 24 24" id="delete" xmlns="http://www.w3.org/2000/svg"><path fill="none" d="M0 0h24v24H0V0z"/><path d="M16 9v10H8V9h8m-1.5-6h-5l-1 1H5v2h14V4h-3.5l-1-1zM18 7H6v12c0 1.1.9 2 2 2h8c1.1 0 2-.9 2-2V7z"/></svg><svg viewBox="0 0 32 32" id="delete-custom" xmlns="http://www.w3.org/2000/svg"><path style="text-indent:0;text-align:start;line-height:normal;text-transform:none;block-progression:tb;-inkscape-font-specification:Bitstream Vera Sans" d="M13.594 4l-.313.281-.719.719H6v2h1v18c0 1.645 1.355 3 3 3h12c1.645 0 3-1.355 3-3V7h1V5h-6.563l-.718-.719L18.406 4h-4.812zm.844 2h3.124l.72.719.312.281H23v18c0 .555-.445 1-1 1H10c-.555 0-1-.445-1-1V7h4.406l.313-.281.719-.719zM11 11v11h2V11h-2zm4 0v11h2V11h-2zm4 0v11h2V11h-2z" overflow="visible" font-family="Bitstream Vera Sans"/></svg><svg viewBox="0 0 24 24" id="delete-forever" xmlns="http://www.w3.org/2000/svg"><path fill="none" d="M0 0h24v24H0V0z"/><path d="M14.12 10.47L12 12.59l-2.13-2.12-1.41 1.41L10.59 14l-2.12 2.12 1.41 1.41L12 15.41l2.12 2.12 1.41-1.41L13.41 14l2.12-2.12zM15.5 4l-1-1h-5l-1 1H5v2h14V4zM6 19c0 1.1.9 2 2 2h8c1.1 0 2-.9 2-2V7H6v12zM8 9h8v10H8V9z"/></svg><svg viewBox="0 0 24 24" id="description" xmlns="http://www.w3.org/2000/svg"><path fill="none" d="M0 0h24v24H0V0z"/><path d="M8 16h8v2H8zm0-4h8v2H8zm6-10H6c-1.1 0-2 .9-2 2v16c0 1.1.89 2 1.99 2H18c1.1 0 2-.9 2-2V8l-6-6zm4 18H6V4h7v5h5v11z"/></svg><svg viewBox="0 0 24 24" id="device-hub" xmlns="http://www.w3.org/2000/svg"><path fill="none" d="M0 0h24v24H0V0zm0 0h24v24H0V0z"/><path d="M17 16l-4-4V8.82C14.16 8.4 15 7.3 15 6c0-1.66-1.34-3-3-3S9 4.34 9 6c0 1.3.84 2.4 2 2.82V12l-4 4H3v5h5v-3.05l4-4.2 4 4.2V21h5v-5h-4z"/></svg><svg viewBox="0 0 24 24" id="drag-handle" xmlns="http://www.w3.org/2000/svg"><path fill="none" d="M0 0h24v24H0z"/><path d="M20 9H4v2h16V9zM4 15h16v-2H4v2z"/></svg><svg viewBox="0 0 48 48" id="drop-custom" xmlns="http://www.w3.org/2000/svg"><path stroke="#E0E0E0" d="M24 44c-7.168 0-13-5.816-13-12.971C11 24 24 4 24 4s13 20 13 27.029C37 38.184 31.168 44 24 44z"/></svg><svg viewBox="0 0 48 48" id="drop-custom" xmlns="http://www.w3.org/2000/svg"><path stroke="#E0E0E0" d="M24 44c-7.168 0-13-5.816-13-12.971C11 24 24 4 24 4s13 20 13 27.029C37 38.184 31.168 44 24 44z"/></svg><svg viewBox="0 0 24 24" id="edit" xmlns="http://www.w3.org/2000/svg"><path fill="none" d="M0 0h24v24H0V0z"/><path d="M14.06 9.02l.92.92L5.92 19H5v-.92l9.06-9.06M17.66 3c-.25 0-.51.1-.7.29l-1.83 1.83 3.75 3.75 1.83-1.83a.996.996 0 000-1.41l-2.34-2.34c-.2-.2-.45-.29-.71-.29zm-3.6 3.19L3 17.25V21h3.75L17.81 9.94l-3.75-3.75z"/></svg><svg viewBox="0 0 50 50" id="envato-custom" xmlns="http://www.w3.org/2000/svg"><path d="M23.898 47C13.656 47 5.004 38.355 5.004 28.125V28c-.074-4.926 1.555-8.285 2.258-9.5 1.36-2.348 3.035-4.09 3.55-4.363.754-.403 1.31.195 1.551.449.469.5.235 1.11.145 1.34-.895 2.34-1.578 4.355-1.504 7.172.094 3.808 1.484 5.601 2.082 6.195.375.379.684.555.93.64a41.26 41.26 0 01.757-6.628c.34-1.715 1.508-6.22 4.915-11.008 4.027-5.664 8.761-8.024 9.527-8.254 1.355-.406 4.32-.914 6.742-1.023 2.574-.11 3.203.554 3.965 2.015l.125.242c1.773 3.336 4.984 13.555 3.61 23.856C42.011 39.993 34.256 47 23.897 47zm-9.25-17h-.02.024-.004z"/></svg><svg viewBox="0 0 24 24" id="error-outline" xmlns="http://www.w3.org/2000/svg"><path d="M11 15h2v2h-2v-2zm0-8h2v6h-2V7zm.99-5C6.47 2 2 6.48 2 12s4.47 10 9.99 10C17.52 22 22 17.52 22 12S17.52 2 11.99 2zM12 20c-4.42 0-8-3.58-8-8s3.58-8 8-8 8 3.58 8 8-3.58 8-8 8z"/></svg><svg viewBox="0 0 24 24" id="exit-to-app" xmlns="http://www.w3.org/2000/svg"><path fill="none" d="M0 0h24v24H0V0z"/><path d="M10.09 15.59L11.5 17l5-5-5-5-1.41 1.41L12.67 11H3v2h9.67l-2.58 2.59zM19 3H5a2 2 0 00-2 2v4h2V5h14v14H5v-4H3v4a2 2 0 002 2h14c1.1 0 2-.9 2-2V5c0-1.1-.9-2-2-2z"/></svg><svg viewBox="0 0 24 24" id="facebook" xmlns="http://www.w3.org/2000/svg"><path d="M17.525 9H14V7c0-1.032.084-1.682 1.563-1.682h1.868v-3.18A26.065 26.065 0 0014.693 2C11.98 2 10 3.657 10 6.699V9H7v4l3-.001V22h4v-9.003l3.066-.001L17.525 9z"/></svg><svg viewBox="0 0 24 24" id="file" xmlns="http://www.w3.org/2000/svg"><path d="M6 2c-1.094 0-2 .906-2 2v16c0 1.094.906 2 2 2h12c1.094 0 2-.906 2-2V8l-6-6H6zm0 2h7v5h5v11H6V4zm2 8v2h8v-2H8zm0 4v2h8v-2H8z"/></svg><svg viewBox="0 0 24 24" id="file-download" xmlns="http://www.w3.org/2000/svg"><path fill="none" d="M0 0h24v24H0V0z"/><path d="M19 12v7H5v-7H3v7c0 1.1.9 2 2 2h14c1.1 0 2-.9 2-2v-7h-2zm-6 .67l2.59-2.58L17 11.5l-5 5-5-5 1.41-1.41L11 12.67V3h2v9.67z"/></svg><svg viewBox="0 0 24 24" id="file-upload" xmlns="http://www.w3.org/2000/svg"><path style="line-height:normal;text-indent:0;text-align:start;text-decoration-line:none;text-decoration-style:solid;text-decoration-color:#000;text-transform:none;block-progression:tb;isolation:auto;mix-blend-mode:normal" d="M12 1.586L4.586 9H9v6.5c0 .817.683 1.5 1.5 1.5h3c.817 0 1.5-.683 1.5-1.5V9h4.414L12 1.586zm0 2.828L14.586 7H13v8h-2V7H9.414L12 4.414zM2 20v2h20v-2H2z" font-weight="400" font-family="sans-serif" overflow="visible"/></svg><svg viewBox="0 0 24 24" id="filter-list" xmlns="http://www.w3.org/2000/svg"><path fill="none" d="M0 0h24v24H0V0z"/><path d="M10 18h4v-2h-4v2zM3 6v2h18V6H3zm3 7h12v-2H6v2z"/></svg><svg viewBox="0 0 32 32" id="flag-custom" xmlns="http://www.w3.org/2000/svg"><path style="text-indent:0;text-align:start;line-height:normal;text-transform:none;block-progression:tb;-inkscape-font-specification:Sans" d="M5 5v24h2V19h8v3h12V8H17V5H5zm2 2h8v10H7V7zm10 3h8v10h-8V10z" overflow="visible" font-family="Sans"/></svg><svg viewBox="0 0 24 24" id="folder-open" xmlns="http://www.w3.org/2000/svg"><path fill="none" d="M0 0h24v24H0V0z"/><path d="M20 6h-8l-2-2H4c-1.1 0-1.99.9-1.99 2L2 18c0 1.1.9 2 2 2h16c1.1 0 2-.9 2-2V8c0-1.1-.9-2-2-2zm0 12H4V8h16v10z"/></svg><svg viewBox="0 0 24 24" id="format-align-center" xmlns="http://www.w3.org/2000/svg"><path fill="none" d="M0 0h24v24H0V0z"/><path d="M7 15v2h10v-2H7zm-4 6h18v-2H3v2zm0-8h18v-2H3v2zm4-6v2h10V7H7zM3 3v2h18V3H3z"/></svg><svg viewBox="0 0 24 24" id="format-align-left" xmlns="http://www.w3.org/2000/svg"><path fill="none" d="M0 0h24v24H0V0z"/><path d="M15 15H3v2h12v-2zm0-8H3v2h12V7zM3 13h18v-2H3v2zm0 8h18v-2H3v2zM3 3v2h18V3H3z"/></svg><svg viewBox="0 0 24 24" id="format-align-right" xmlns="http://www.w3.org/2000/svg"><path fill="none" d="M0 0h24v24H0V0z"/><path d="M3 21h18v-2H3v2zm6-4h12v-2H9v2zm-6-4h18v-2H3v2zm6-4h12V7H9v2zM3 3v2h18V3H3z"/></svg><svg viewBox="0 0 24 24" id="format-bold" xmlns="http://www.w3.org/2000/svg"><path fill="none" d="M0 0h24v24H0V0z"/><path d="M15.6 10.79c.97-.67 1.65-1.77 1.65-2.79 0-2.26-1.75-4-4-4H7v14h7.04c2.09 0 3.71-1.7 3.71-3.79 0-1.52-.86-2.82-2.15-3.42zM10 6.5h3c.83 0 1.5.67 1.5 1.5s-.67 1.5-1.5 1.5h-3v-3zm3.5 9H10v-3h3.5c.83 0 1.5.67 1.5 1.5s-.67 1.5-1.5 1.5z"/></svg><svg viewBox="0 0 24 24" id="format-clear" xmlns="http://www.w3.org/2000/svg"><path fill="none" d="M0 0h24v24H0V0z"/><path d="M20 8V5H6.39l3 3h1.83l-.55 1.28 2.09 2.1L14.21 8zM3.41 4.86L2 6.27l6.97 6.97L6.5 19h3l1.57-3.66L16.73 21l1.41-1.41z"/></svg><svg viewBox="0 0 24 24" id="format-color-fill" xmlns="http://www.w3.org/2000/svg"><path fill="none" d="M0 0h24v24H0V0z"/><path d="M16.56 8.94L7.62 0 6.21 1.41l2.38 2.38-5.15 5.15a1.49 1.49 0 000 2.12l5.5 5.5c.29.29.68.44 1.06.44s.77-.15 1.06-.44l5.5-5.5c.59-.58.59-1.53 0-2.12zM5.21 10L10 5.21 14.79 10H5.21zM19 11.5s-2 2.17-2 3.5c0 1.1.9 2 2 2s2-.9 2-2c0-1.33-2-3.5-2-3.5z"/><path fill-opacity=".36" d="M0 20h24v4H0v-4z"/></svg><svg viewBox="0 0 24 24" id="format-color-text" xmlns="http://www.w3.org/2000/svg"><path fill="none" d="M0 0h24v24H0V0z"/><path fill-opacity=".36" d="M0 20h24v4H0v-4z"/><path d="M11 3L5.5 17h2.25l1.12-3h6.25l1.12 3h2.25L13 3h-2zm-1.38 9L12 5.67 14.38 12H9.62z"/></svg><svg viewBox="0 0 24 24" id="format-indent-decrease" xmlns="http://www.w3.org/2000/svg"><path d="M0 0h24v24H0V0z" fill="none"/><path d="M11 17h10v-2H11v2zm-8-5l4 4V8l-4 4zm0 9h18v-2H3v2zM3 3v2h18V3H3zm8 6h10V7H11v2zm0 4h10v-2H11v2z"/></svg><svg viewBox="0 0 24 24" id="format-indent-increase" xmlns="http://www.w3.org/2000/svg"><path d="M0 0h24v24H0V0z" fill="none"/><path d="M3 21h18v-2H3v2zM3 8v8l4-4-4-4zm8 9h10v-2H11v2zM3 3v2h18V3H3zm8 6h10V7H11v2zm0 4h10v-2H11v2z"/></svg><svg viewBox="0 0 24 24" id="format-italic" xmlns="http://www.w3.org/2000/svg"><path fill="none" d="M0 0h24v24H0V0z"/><path d="M10 4v3h2.21l-3.42 8H6v3h8v-3h-2.21l3.42-8H18V4h-8z"/></svg><svg viewBox="0 0 24 24" id="format-list-bulleted" xmlns="http://www.w3.org/2000/svg"><path fill="none" d="M0 0h24v24H0V0z"/><path d="M4 10.5c-.83 0-1.5.67-1.5 1.5s.67 1.5 1.5 1.5 1.5-.67 1.5-1.5-.67-1.5-1.5-1.5zm0-6c-.83 0-1.5.67-1.5 1.5S3.17 7.5 4 7.5 5.5 6.83 5.5 6 4.83 4.5 4 4.5zm0 12c-.83 0-1.5.68-1.5 1.5s.68 1.5 1.5 1.5 1.5-.68 1.5-1.5-.67-1.5-1.5-1.5zM7 19h14v-2H7v2zm0-6h14v-2H7v2zm0-8v2h14V5H7z"/></svg><svg viewBox="0 0 24 24" id="format-list-numbered" xmlns="http://www.w3.org/2000/svg"><path fill="none" d="M0 0h24v24H0V0z"/><path d="M2 17h2v.5H3v1h1v.5H2v1h3v-4H2v1zm1-9h1V4H2v1h1v3zm-1 3h1.8L2 13.1v.9h3v-1H3.2L5 10.9V10H2v1zm5-6v2h14V5H7zm0 14h14v-2H7v2zm0-6h14v-2H7v2z"/></svg><svg viewBox="0 0 24 24" id="format-underlined" xmlns="http://www.w3.org/2000/svg"><path fill="none" d="M0 0h24v24H0V0z"/><path d="M12 17c3.31 0 6-2.69 6-6V3h-2.5v8c0 1.93-1.57 3.5-3.5 3.5S8.5 12.93 8.5 11V3H6v8c0 3.31 2.69 6 6 6zm-7 2v2h14v-2H5z"/></svg><svg viewBox="0 0 24 24" id="google" xmlns="http://www.w3.org/2000/svg"><path d="M12.545 10.239v3.821h5.445c-.712 2.315-2.647 3.972-5.445 3.972a6.033 6.033 0 110-12.064c1.498 0 2.866.549 3.921 1.453l2.814-2.814A9.969 9.969 0 0012.545 2C7.021 2 2.543 6.477 2.543 12s4.478 10 10.002 10c8.396 0 10.249-7.85 9.426-11.748l-9.426-.013z"/></svg><svg viewBox="0 0 24 24" id="image" xmlns="http://www.w3.org/2000/svg"><path fill="none" d="M0 0h24v24H0V0z"/><path d="M19 5v14H5V5h14m0-2H5c-1.1 0-2 .9-2 2v14c0 1.1.9 2 2 2h14c1.1 0 2-.9 2-2V5c0-1.1-.9-2-2-2zm-4.86 8.86l-3 3.87L9 13.14 6 17h12l-3.86-5.14z"/></svg><svg viewBox="0 0 24 24" id="inbox" xmlns="http://www.w3.org/2000/svg"><path fill="none" d="M0 0h24v24H0V0z"/><path d="M19 3H5c-1.1 0-2 .9-2 2v14a2 2 0 002 2h14c1.1 0 2-.9 2-2V5c0-1.1-.9-2-2-2zm0 16H5v-3h3.56c.69 1.19 1.97 2 3.45 2s2.75-.81 3.45-2H19v3zm0-5h-4.99c0 1.1-.9 2-2 2s-2-.9-2-2H5V5h14v9z"/></svg><svg viewBox="0 0 32 32" id="inbox-custom" xmlns="http://www.w3.org/2000/svg"><path style="text-indent:0;text-align:start;line-height:normal;text-transform:none;block-progression:tb;-inkscape-font-specification:Bitstream Vera Sans" d="M7.156 5L7 5.844l-2 13V27h22v-8.156l-2-13L24.844 5H7.156zm1.719 2h14.25l1.688 11H18v1c0 1.117-.883 2-2 2s-2-.883-2-2v-1H7.187L8.876 7zM7 20h5.188c.453 1.71 1.965 3 3.812 3 1.847 0 3.359-1.29 3.813-3H25v5H7v-5z" overflow="visible" font-family="Bitstream Vera Sans"/></svg><svg viewBox="0 0 24 24" id="info" xmlns="http://www.w3.org/2000/svg"><path fill="none" d="M0 0h24v24H0V0z"/><path d="M11 7h2v2h-2zm0 4h2v6h-2zm1-9C6.48 2 2 6.48 2 12s4.48 10 10 10 10-4.48 10-10S17.52 2 12 2zm0 18c-4.41 0-8-3.59-8-8s3.59-8 8-8 8 3.59 8 8-3.59 8-8 8z"/></svg><svg viewBox="0 0 24 24" id="insert-drive-file" xmlns="http://www.w3.org/2000/svg"><path fill="none" d="M0 0h24v24H0V0z"/><path d="M14 2H6c-1.1 0-1.99.9-1.99 2L4 20c0 1.1.89 2 1.99 2H18c1.1 0 2-.9 2-2V8l-6-6zM6 20V4h7v5h5v11H6z"/></svg><svg viewBox="0 0 24 24" id="keyboard-arrow-down" xmlns="http://www.w3.org/2000/svg"><path fill="none" d="M0 0h24v24H0V0z"/><path d="M7.41 8.59L12 13.17l4.59-4.58L18 10l-6 6-6-6 1.41-1.41z"/></svg><svg viewBox="0 0 24 24" id="keyboard-arrow-left" xmlns="http://www.w3.org/2000/svg"><path fill="none" d="M0 0h24v24H0V0z"/><path d="M15.41 16.59L10.83 12l4.58-4.59L14 6l-6 6 6 6 1.41-1.41z"/></svg><svg viewBox="0 0 24 24" id="keyboard-arrow-right" xmlns="http://www.w3.org/2000/svg"><path fill="none" d="M0 0h24v24H0V0z"/><path d="M8.59 16.59L13.17 12 8.59 7.41 10 6l6 6-6 6-1.41-1.41z"/></svg><svg viewBox="0 0 24 24" id="keyboard-backspace" xmlns="http://www.w3.org/2000/svg"><path d="M0 0h24v24H0V0z" fill="none"/><path d="M21 11H6.83l3.58-3.59L9 6l-6 6 6 6 1.41-1.41L6.83 13H21v-2z"/></svg><svg viewBox="0 0 24 24" id="light" xmlns="http://www.w3.org/2000/svg"><path style="line-height:normal;text-indent:0;text-align:start;text-decoration-line:none;text-decoration-style:solid;text-decoration-color:#000;text-transform:none;block-progression:tb;isolation:auto;mix-blend-mode:normal" d="M12 2c-2.117 0-4.092.578-5.576 1.77C4.94 4.96 4 6.797 4 9c0 1.778.881 3.493 1.95 5.021A20.312 20.312 0 009 17.443V20c0 1.093.907 2 2 2h2c1.093 0 2-.907 2-2v-2.557a20.312 20.312 0 003.05-3.422C19.12 12.493 20 10.778 20 9c0-2.203-.94-4.04-2.424-5.23C16.092 2.578 14.117 2 12 2zm0 2c1.749 0 3.275.488 4.324 1.33C17.374 6.172 18 7.337 18 9c0 1.062-.644 2.524-1.588 3.875-.878 1.256-1.964 2.355-2.842 3.125h-3.14c-.878-.77-1.964-1.87-2.842-3.125C6.644 11.525 6 10.062 6 9c0-1.663.626-2.828 1.676-3.67C8.726 4.488 10.25 4 12 4zm-1 14h2v2h-2v-2z"/></svg><svg viewBox="0 0 24 24" id="light-on" xmlns="http://www.w3.org/2000/svg"><path d="M12 0a1 1 0 00-1 1 1 1 0 001 1 1 1 0 001-1 1 1 0 00-1-1zM4.223 3.223a1 1 0 00-1 1 1 1 0 001 1 1 1 0 001-1 1 1 0 00-1-1zm15.554 0a1 1 0 00-1 1 1 1 0 001 1 1 1 0 001-1 1 1 0 00-1-1zM12 5c-3.859 0-7 3.141-7 7a7.008 7.008 0 004 6.318V21c0 1.103.897 2 2 2h2c1.103 0 2-.897 2-2v-2.682A7.008 7.008 0 0019 12c0-3.859-3.141-7-7-7zm0 2c2.757 0 5 2.243 5 5 0 2.11-1.34 4.003-3.334 4.709l-.666.234V21h-2v-4.057l-.666-.234A5.008 5.008 0 017 12c0-2.757 2.243-5 5-5zM1 11a1 1 0 00-1 1 1 1 0 001 1 1 1 0 001-1 1 1 0 00-1-1zm22 0a1 1 0 00-1 1 1 1 0 001 1 1 1 0 001-1 1 1 0 00-1-1zM4.223 18.777a1 1 0 00-1 1 1 1 0 001 1 1 1 0 001-1 1 1 0 00-1-1zm15.554 0a1 1 0 00-1 1 1 1 0 001 1 1 1 0 001-1 1 1 0 00-1-1z"/></svg><svg viewBox="0 0 24 24" id="link" xmlns="http://www.w3.org/2000/svg"><path fill="none" d="M0 0h24v24H0V0z"/><path d="M17 7h-4v2h4c1.65 0 3 1.35 3 3s-1.35 3-3 3h-4v2h4c2.76 0 5-2.24 5-5s-2.24-5-5-5zm-6 8H7c-1.65 0-3-1.35-3-3s1.35-3 3-3h4V7H7c-2.76 0-5 2.24-5 5s2.24 5 5 5h4v-2zm-3-4h8v2H8z"/></svg><svg viewBox="0 0 24 24" id="local-offer" xmlns="http://www.w3.org/2000/svg"><path fill="none" d="M0 0h24v24H0V0z"/><path d="M21.41 11.58l-9-9C12.05 2.22 11.55 2 11 2H4c-1.1 0-2 .9-2 2v7c0 .55.22 1.05.59 1.42l9 9c.36.36.86.58 1.41.58s1.05-.22 1.41-.59l7-7c.37-.36.59-.86.59-1.41s-.23-1.06-.59-1.42zM13 20.01L4 11V4h7v-.01l9 9-7 7.02z"/><circle cx="6.5" cy="6.5" r="1.5"/></svg><svg viewBox="0 0 24 24" id="mail" xmlns="http://www.w3.org/2000/svg"><path fill="none" d="M0 0h24v24H0V0z"/><path d="M22 6c0-1.1-.9-2-2-2H4c-1.1 0-2 .9-2 2v12c0 1.1.9 2 2 2h16c1.1 0 2-.9 2-2V6zm-2 0l-8 4.99L4 6h16zm0 12H4V8l8 5 8-5v10z"/></svg><svg viewBox="0 0 24 24" id="menu" xmlns="http://www.w3.org/2000/svg"><path fill="none" d="M0 0h24v24H0V0z"/><path d="M3 18h18v-2H3v2zm0-5h18v-2H3v2zm0-7v2h18V6H3z"/></svg><svg viewBox="0 0 24 24" id="more-vert" xmlns="http://www.w3.org/2000/svg"><path fill="none" d="M0 0h24v24H0V0z"/><path d="M12 8c1.1 0 2-.9 2-2s-.9-2-2-2-2 .9-2 2 .9 2 2 2zm0 2c-1.1 0-2 .9-2 2s.9 2 2 2 2-.9 2-2-.9-2-2-2zm0 6c-1.1 0-2 .9-2 2s.9 2 2 2 2-.9 2-2-.9-2-2-2z"/></svg><svg viewBox="0 0 24 24" id="new-ticket-custom" xmlns="http://www.w3.org/2000/svg"><path d="M4 4c-1.1 0-2 .9-2 2v4c1.1 0 2 .9 2 2s-.9 2-2 2v4c0 1.1.9 2 2 2h16c1.1 0 2-.9 2-2v-4c-1.1 0-2-.9-2-2s.9-2 2-2V6c0-1.1-.9-2-2-2H4zm0 2h16v2.537A4.003 4.003 0 0018 12c0 1.477.805 2.77 2 3.463V18H4v-2.537A4 4 0 006 12a4 4 0 00-2-3.463V6zm7 2v3H8v2h3v3h2v-3h3v-2h-3V8h-2z"/></svg><svg viewBox="0 0 24 24" id="note" xmlns="http://www.w3.org/2000/svg"><path fill="none" d="M0 0h24v24H0V0z"/><path d="M16 4H4c-1.1 0-2 .9-2 2v12.01c0 1.1.9 1.99 2 1.99h16c1.1 0 2-.9 2-2v-8l-6-6zM4 18.01V6h11v5h5v7.01H4z"/></svg><svg viewBox="0 0 32 32" id="note-custom" xmlns="http://www.w3.org/2000/svg"><path style="text-indent:0;text-align:start;line-height:normal;text-transform:none;block-progression:tb;-inkscape-font-specification:Bitstream Vera Sans" d="M5 5v22h15.406l.313-.281 6-6 .281-.313V5H5zm2 2h18v12h-6v6H7V7zm14 14h2.563L21 23.563V21z" overflow="visible" font-family="Bitstream Vera Sans"/></svg><svg viewBox="0 0 24 24" id="notifications" xmlns="http://www.w3.org/2000/svg"><path fill="none" d="M0 0h24v24H0V0z"/><path d="M12 22c1.1 0 2-.9 2-2h-4c0 1.1.9 2 2 2zm6-6v-5c0-3.07-1.63-5.64-4.5-6.32V4c0-.83-.67-1.5-1.5-1.5s-1.5.67-1.5 1.5v.68C7.64 5.36 6 7.92 6 11v5l-2 2v1h16v-1l-2-2zm-2 1H8v-6c0-2.48 1.51-4.5 4-4.5s4 2.02 4 4.5v6z"/></svg><svg viewBox="0 0 32 32" id="open-in-browser-custom" xmlns="http://www.w3.org/2000/svg"><path d="M4 5v22h9v-2H6V13h20v12h-7v2h9V5zm2 2h20v4H6zm2 1c-.55 0-1 .45-1 1s.45 1 1 1 1-.45 1-1-.45-1-1-1zm3 0c-.55 0-1 .45-1 1s.45 1 1 1 1-.45 1-1-.45-1-1-1zm2 0v2h11V8zm3 8.594l-.719.687-3.5 3.5 1.438 1.438L15 20.437V28c0 .566-.434 1-1 1h-2v2h2c1.645 0 3-1.355 3-3v-7.563l1.781 1.782 1.438-1.438-3.5-3.5z"/></svg><svg viewBox="0 0 24 24" id="page" xmlns="http://www.w3.org/2000/svg"><path d="M5 3c-1.093 0-2 .907-2 2v14c0 1.093.907 2 2 2h14c1.093 0 2-.907 2-2V5c0-1.093-.907-2-2-2H5zm0 2h14v4H5V5zm2 1a1 1 0 00-1 1 1 1 0 001 1 1 1 0 001-1 1 1 0 00-1-1zm3 0a1 1 0 00-1 1 1 1 0 001 1 1 1 0 001-1 1 1 0 00-1-1zm3 0v2h4V6h-4zm-8 5h3v8H5v-8zm5 0h9v8h-9v-8zm2 1v2h5v-2h-5zm0 3v2h5v-2h-5z"/></svg><svg viewBox="0 0 40 40" id="password" xmlns="http://www.w3.org/2000/svg"><path d="M27 17.398V9c0-3.867-3.133-7-7-7s-7 3.133-7 7v8.398" fill="none" stroke-width="2" stroke="#4788c7" stroke-miterlimit="10"/><path d="M20 38.5c-6.895 0-12.5-5.605-12.5-12.5S13.105 13.5 20 13.5 32.5 19.105 32.5 26 26.895 38.5 20 38.5z" fill="#98ccfd"/><path d="M20 14c6.617 0 12 5.383 12 12s-5.383 12-12 12S8 32.617 8 26s5.383-12 12-12m0-1c-7.18 0-13 5.82-13 13s5.82 13 13 13 13-5.82 13-13-5.82-13-13-13z" fill="#4788c7"/><path d="M28 26a8 8 0 11-16 0 8 8 0 0116 0z" fill="#dff0fe"/><path d="M20 31c-.55 0-1-.45-1-1v-3c0-.55.45-1 1-1s1 .45 1 1v3c0 .55-.45 1-1 1z" fill="#4788c7"/></svg><svg viewBox="0 0 24 24" id="pause" xmlns="http://www.w3.org/2000/svg"><path fill="none" d="M0 0h24v24H0V0z"/><path d="M6 19h4V5H6v14zm8-14v14h4V5h-4z"/></svg><svg viewBox="0 0 24 24" id="people" xmlns="http://www.w3.org/2000/svg"><path fill="none" d="M0 0h24v24H0V0z"/><path d="M9 13.75c-2.34 0-7 1.17-7 3.5V19h14v-1.75c0-2.33-4.66-3.5-7-3.5zM4.34 17c.84-.58 2.87-1.25 4.66-1.25s3.82.67 4.66 1.25H4.34zM9 12c1.93 0 3.5-1.57 3.5-3.5S10.93 5 9 5 5.5 6.57 5.5 8.5 7.07 12 9 12zm0-5c.83 0 1.5.67 1.5 1.5S9.83 10 9 10s-1.5-.67-1.5-1.5S8.17 7 9 7zm7.04 6.81c1.16.84 1.96 1.96 1.96 3.44V19h4v-1.75c0-2.02-3.5-3.17-5.96-3.44zM15 12c1.93 0 3.5-1.57 3.5-3.5S16.93 5 15 5c-.54 0-1.04.13-1.5.35.63.89 1 1.98 1 3.15s-.37 2.26-1 3.15c.46.22.96.35 1.5.35z"/></svg><svg viewBox="0 0 24 24" id="person" xmlns="http://www.w3.org/2000/svg"><path fill="none" d="M0 0h24v24H0V0z"/><path d="M12 6c1.1 0 2 .9 2 2s-.9 2-2 2-2-.9-2-2 .9-2 2-2m0 10c2.7 0 5.8 1.29 6 2H6c.23-.72 3.31-2 6-2m0-12C9.79 4 8 5.79 8 8s1.79 4 4 4 4-1.79 4-4-1.79-4-4-4zm0 10c-2.67 0-8 1.34-8 4v2h16v-2c0-2.66-5.33-4-8-4z"/></svg><svg viewBox="0 0 24 24" id="photo-size-select-actual" xmlns="http://www.w3.org/2000/svg"><path fill="none" d="M0 0h24v24H0V0z"/><path d="M21 3H3C2 3 1 4 1 5v14c0 1.1.9 2 2 2h18c1 0 2-1 2-2V5c0-1-1-2-2-2zm0 15.92c-.02.03-.06.06-.08.08H3V5.08L3.08 5h17.83c.03.02.06.06.08.08v13.84zm-10-3.41L8.5 12.5 5 17h14l-4.5-6z"/></svg><svg viewBox="0 0 24 24" id="pie-chart" xmlns="http://www.w3.org/2000/svg"><path fill="none" d="M0 0h24v24H0V0z"/><path d="M12 2C6.48 2 2 6.48 2 12s4.48 10 10 10 10-4.48 10-10S17.52 2 12 2zm7.93 9H13V4.07c3.61.45 6.48 3.32 6.93 6.93zM4 12c0-4.07 3.06-7.44 7-7.93v15.86c-3.94-.49-7-3.86-7-7.93zm9 7.93V13h6.93A8.002 8.002 0 0113 19.93z"/></svg><svg viewBox="0 0 24 24" id="question-answer" xmlns="http://www.w3.org/2000/svg"><path fill="none" d="M0 0h24v24H0V0z"/><path d="M15 4v7H5.17l-.59.59-.58.58V4h11m1-2H3c-.55 0-1 .45-1 1v14l4-4h10c.55 0 1-.45 1-1V3c0-.55-.45-1-1-1zm5 4h-2v9H6v2c0 .55.45 1 1 1h11l4 4V7c0-.55-.45-1-1-1z"/></svg><svg viewBox="0 0 24 24" id="redo" xmlns="http://www.w3.org/2000/svg"><path fill="none" d="M0 0h24v24H0V0z"/><path d="M18.4 10.6C16.55 8.99 14.15 8 11.5 8c-4.65 0-8.58 3.03-9.96 7.22L3.9 16a8.002 8.002 0 017.6-5.5c1.95 0 3.73.72 5.12 1.88L13 16h9V7l-3.6 3.6z"/></svg><svg viewBox="0 0 24 24" id="remove" xmlns="http://www.w3.org/2000/svg"><path fill="none" d="M0 0h24v24H0V0z"/><path d="M19 13H5v-2h14v2z"/></svg><svg viewBox="0 0 24 24" id="remove-red-eye" xmlns="http://www.w3.org/2000/svg"><path fill="none" d="M0 0h24v24H0V0z"/><path d="M12 6.5a9.77 9.77 0 018.82 5.5c-1.65 3.37-5.02 5.5-8.82 5.5S4.83 15.37 3.18 12A9.77 9.77 0 0112 6.5m0-2C7 4.5 2.73 7.61 1 12c1.73 4.39 6 7.5 11 7.5s9.27-3.11 11-7.5c-1.73-4.39-6-7.5-11-7.5zm0 5a2.5 2.5 0 010 5 2.5 2.5 0 010-5m0-2c-2.48 0-4.5 2.02-4.5 4.5s2.02 4.5 4.5 4.5 4.5-2.02 4.5-4.5-2.02-4.5-4.5-4.5z"/></svg><svg viewBox="0 0 24 24" id="reply" xmlns="http://www.w3.org/2000/svg"><path fill="none" d="M0 0h24v24H0V0z"/><path d="M10 9V5l-7 7 7 7v-4.1c5 0 8.5 1.6 11 5.1-1-5-4-10-11-11z"/></svg><svg viewBox="0 0 32 32" id="return-custom" xmlns="http://www.w3.org/2000/svg"><path style="text-indent:0;text-align:start;line-height:normal;text-transform:none;block-progression:tb;-inkscape-font-specification:Bitstream Vera Sans" d="M8.281 5.281l-6 6-.687.719.687.719 6 6L9.72 17.28 5.438 13H23c2.755 0 5 2.245 5 5s-2.245 5-5 5h-3v2h3c3.845 0 7-3.155 7-7s-3.155-7-7-7H5.437L9.72 6.719 8.28 5.28zM8 23v2h2v-2H8zm4 0v2h2v-2h-2zm4 0v2h2v-2h-2z" overflow="visible" font-family="Bitstream Vera Sans"/></svg><svg viewBox="0 0 24 24" id="search" xmlns="http://www.w3.org/2000/svg"><path fill="none" d="M0 0h24v24H0V0z"/><path d="M15.5 14h-.79l-.28-.27A6.471 6.471 0 0016 9.5 6.5 6.5 0 109.5 16c1.61 0 3.09-.59 4.23-1.57l.27.28v.79l5 4.99L20.49 19l-4.99-5zm-6 0C7.01 14 5 11.99 5 9.5S7.01 5 9.5 5 14 7.01 14 9.5 11.99 14 9.5 14z"/></svg><svg viewBox="0 0 24 24" id="settings" xmlns="http://www.w3.org/2000/svg"><path fill="none" d="M0 0h24v24H0V0z"/><path d="M19.43 12.98c.04-.32.07-.64.07-.98 0-.34-.03-.66-.07-.98l2.11-1.65c.19-.15.24-.42.12-.64l-2-3.46a.5.5 0 00-.61-.22l-2.49 1c-.52-.4-1.08-.73-1.69-.98l-.38-2.65A.488.488 0 0014 2h-4c-.25 0-.46.18-.49.42l-.38 2.65c-.61.25-1.17.59-1.69.98l-2.49-1a.566.566 0 00-.18-.03c-.17 0-.34.09-.43.25l-2 3.46c-.13.22-.07.49.12.64l2.11 1.65c-.04.32-.07.65-.07.98 0 .33.03.66.07.98l-2.11 1.65c-.19.15-.24.42-.12.64l2 3.46a.5.5 0 00.61.22l2.49-1c.52.4 1.08.73 1.69.98l.38 2.65c.03.24.24.42.49.42h4c.25 0 .46-.18.49-.42l.38-2.65c.61-.25 1.17-.59 1.69-.98l2.49 1c.06.02.12.03.18.03.17 0 .34-.09.43-.25l2-3.46c.12-.22.07-.49-.12-.64l-2.11-1.65zm-1.98-1.71c.04.31.05.52.05.73 0 .21-.02.43-.05.73l-.14 1.13.89.7 1.08.84-.7 1.21-1.27-.51-1.04-.42-.9.68c-.43.32-.84.56-1.25.73l-1.06.43-.16 1.13-.2 1.35h-1.4l-.19-1.35-.16-1.13-1.06-.43c-.43-.18-.83-.41-1.23-.71l-.91-.7-1.06.43-1.27.51-.7-1.21 1.08-.84.89-.7-.14-1.13c-.03-.31-.05-.54-.05-.74s.02-.43.05-.73l.14-1.13-.89-.7-1.08-.84.7-1.21 1.27.51 1.04.42.9-.68c.43-.32.84-.56 1.25-.73l1.06-.43.16-1.13.2-1.35h1.39l.19 1.35.16 1.13 1.06.43c.43.18.83.41 1.23.71l.91.7 1.06-.43 1.27-.51.7 1.21-1.07.85-.89.7.14 1.13zM12 8c-2.21 0-4 1.79-4 4s1.79 4 4 4 4-1.79 4-4-1.79-4-4-4zm0 6c-1.1 0-2-.9-2-2s.9-2 2-2 2 .9 2 2-.9 2-2 2z"/></svg><svg viewBox="0 0 50 50" id="shield-custom" xmlns="http://www.w3.org/2000/svg"><path d="M25 0c-2.453 0-4.523 1.355-7.594 2.938-3.07 1.582-7.191 3.492-13.625 4.906L3 8.03v.781c0 15.32 5.371 25.56 10.75 31.907 5.379 6.347 10.844 8.875 10.844 8.875l.437.218.438-.218S47 38.469 47 8.812v-.78l-.781-.188C39.785 6.43 35.664 4.52 32.594 2.937 29.524 1.355 27.454 0 25 0zm0 2c1.645 0 3.55 1.105 6.688 2.719 2.98 1.531 7.171 3.41 13.25 4.843-.368 27.118-18.684 37.29-19.97 37.97-.62-.302-4.948-2.466-9.718-8.094C10.223 33.504 5.246 23.96 5.062 9.561c6.079-1.433 10.27-3.312 13.25-4.843C21.45 3.105 23.355 2 25 2zm7.688 12.625l-.532.844-8.125 12.625-5.375-4.844-.718-.656-1.344 1.468.75.688 6.187 5.625.875.781.657-1 8.78-13.625.532-.843z"/></svg><svg viewBox="0 0 24 24" id="star" xmlns="http://www.w3.org/2000/svg"><g fill="none"><path d="M0 0h24v24H0V0z"/><path d="M0 0h24v24H0V0z"/></g><path d="M12 17.27L18.18 21l-1.64-7.03L22 9.24l-7.19-.61L12 2 9.19 8.63 2 9.24l5.46 4.73L5.82 21 12 17.27z"/></svg><svg viewBox="0 0 24 24" id="style" xmlns="http://www.w3.org/2000/svg"><path fill="none" d="M0 0h24v24H0V0z"/><path d="M2.53 19.65l1.34.56v-9.03l-2.43 5.86c-.41 1.02.08 2.19 1.09 2.61zm19.5-3.7L17.07 3.98a2.013 2.013 0 00-1.81-1.23c-.26 0-.53.04-.79.15L7.1 5.95a1.999 1.999 0 00-1.08 2.6l4.96 11.97a1.998 1.998 0 002.6 1.08l7.36-3.05a1.994 1.994 0 001.09-2.6zm-9.2 3.8L7.87 7.79l7.35-3.04h.01l4.95 11.95-7.35 3.05z"/><circle cx="11" cy="9" r="1"/><path d="M5.88 19.75c0 1.1.9 2 2 2h1.45l-3.45-8.34v6.34z"/></svg><svg viewBox="0 0 24 24" id="subscriptions" xmlns="http://www.w3.org/2000/svg"><path fill="none" d="M0 0h24v24H0V0z"/><path d="M4 6h16v2H4zm2-4h12v2H6zm14 8H4c-1.1 0-2 .9-2 2v8c0 1.1.9 2 2 2h16c1.1 0 2-.9 2-2v-8c0-1.1-.9-2-2-2zm0 10H4v-8h16v8zm-10-7.27v6.53L16 16z"/></svg><svg viewBox="0 0 24 24" id="translate" xmlns="http://www.w3.org/2000/svg"><path fill="none" d="M0 0h24v24H0V0z"/><path d="M12.87 15.07l-2.54-2.51.03-.03A17.52 17.52 0 0014.07 6H17V4h-7V2H8v2H1v1.99h11.17C11.5 7.92 10.44 9.75 9 11.35 8.07 10.32 7.3 9.19 6.69 8h-2c.73 1.63 1.73 3.17 2.98 4.56l-5.09 5.02L4 19l5-5 3.11 3.11.76-2.04zM18.5 10h-2L12 22h2l1.12-3h4.75L21 22h2l-4.5-12zm-2.62 7l1.62-4.33L19.12 17h-3.24z"/></svg><svg viewBox="0 0 24 24" id="twitter" xmlns="http://www.w3.org/2000/svg"><path d="M22 3.999c-.78.463-2.345 1.094-3.265 1.276-.027.007-.049.016-.075.023A4.5 4.5 0 0011 8.499c0 .131-.011.372 0 .5-3.353 0-5.905-1.756-7.735-4-.199.5-.286 1.29-.286 2.032 0 1.401 1.095 2.777 2.8 3.63-.314.081-.66.139-1.02.139A2.686 2.686 0 013 10.183v.051c0 1.958 2.078 3.291 3.926 3.662-.375.221-1.131.243-1.5.243-.26 0-1.18-.119-1.426-.165.514 1.605 2.368 2.507 4.135 2.539-1.382 1.084-2.341 1.486-5.171 1.486H2C3.788 19.145 6.065 20 8.347 20 15.777 20 20 14.337 20 8.999l-.005-.447c0-.018.005-.035.005-.053 0-.027-.008-.053-.008-.08a18.384 18.384 0 00-.009-.329A8.217 8.217 0 0022 5.999a8.07 8.07 0 01-2.32.636c.834-.5 2.019-1.692 2.32-2.636z"/></svg><svg viewBox="0 0 24 24" id="undo" xmlns="http://www.w3.org/2000/svg"><path fill="none" d="M0 0h24v24H0V0z"/><path d="M12.5 8c-2.65 0-5.05.99-6.9 2.6L2 7v9h9l-3.62-3.62c1.39-1.16 3.16-1.88 5.12-1.88 3.54 0 6.55 2.31 7.6 5.5l2.37-.78C21.08 11.03 17.15 8 12.5 8z"/></svg><svg viewBox="0 0 24 24" id="unfold-more" xmlns="http://www.w3.org/2000/svg"><path d="M0 0h24v24H0V0z" fill="none"/><path d="M12 5.83L15.17 9l1.41-1.41L12 3 7.41 7.59 8.83 9 12 5.83zm0 12.34L8.83 15l-1.41 1.41L12 21l4.59-4.59L15.17 15 12 18.17z"/></svg><svg viewBox="0 0 32 32" id="user-custom" xmlns="http://www.w3.org/2000/svg"><path style="text-indent:0;text-align:start;line-height:normal;text-transform:none;block-progression:tb;-inkscape-font-specification:Sans" d="M16 5c-3.854 0-7 3.146-7 7a7.026 7.026 0 003.094 5.813C8.527 19.343 6 22.88 6 27h2a7.976 7.976 0 013.813-6.813A4.538 4.538 0 0016 23a4.538 4.538 0 004.188-2.813A7.976 7.976 0 0124 27h2c0-4.119-2.527-7.658-6.094-9.188A7.026 7.026 0 0023 12c0-3.854-3.146-7-7-7zm0 2c2.773 0 5 2.227 5 5s-2.227 5-5 5-5-2.227-5-5 2.227-5 5-5zm0 12c.82 0 1.6.116 2.344.344A2.484 2.484 0 0116 21a2.484 2.484 0 01-2.344-1.656A7.97 7.97 0 0116 19z" overflow="visible" font-family="Sans"/></svg><svg viewBox="0 0 24 24" id="videocam" xmlns="http://www.w3.org/2000/svg"><path fill="none" d="M0 0h24v24H0V0z"/><path d="M15 8v8H5V8h10m1-2H4c-.55 0-1 .45-1 1v10c0 .55.45 1 1 1h12c.55 0 1-.45 1-1v-3.5l4 4v-11l-4 4V7c0-.55-.45-1-1-1z"/></svg><svg viewBox="0 0 24 24" id="view-comfy" xmlns="http://www.w3.org/2000/svg"><path fill="none" d="M0 0h24v24H0V0z"/><path d="M3 5v14h19V5H3zm17 4h-2.25V7H20v2zM9.25 11h2.25v2H9.25v-2zm-2 2H5v-2h2.25v2zm4.25-4H9.25V7h2.25v2zm2-2h2.25v2H13.5V7zm-2 8v2H9.25v-2h2.25zm2 0h2.25v2H13.5v-2zm0-2v-2h2.25v2H13.5zm4.25-2H20v2h-2.25v-2zM7.25 7v2H5V7h2.25zM5 15h2.25v2H5v-2zm12.75 2v-2H20v2h-2.25z"/></svg><svg viewBox="0 0 24 24" id="view-list" xmlns="http://www.w3.org/2000/svg"><path opacity=".87" fill="none" d="M0 0h24v24H0V0z"/><path d="M3 5v14h17V5H3zm4 2v2H5V7h2zm-2 6v-2h2v2H5zm0 2h2v2H5v-2zm13 2H9v-2h9v2zm0-4H9v-2h9v2zm0-4H9V7h9v2z"/></svg><svg viewBox="0 0 24 24" id="visibility-off" xmlns="http://www.w3.org/2000/svg"><path d="M0 0h24v24H0V0zm0 0h24v24H0V0zm0 0h24v24H0V0zm0 0h24v24H0V0z" fill="none"/><path d="M12 6a9.77 9.77 0 018.82 5.5 9.647 9.647 0 01-2.41 3.12l1.41 1.41c1.39-1.23 2.49-2.77 3.18-4.53C21.27 7.11 17 4 12 4c-1.27 0-2.49.2-3.64.57l1.65 1.65C10.66 6.09 11.32 6 12 6zm-1.07 1.14L13 9.21c.57.25 1.03.71 1.28 1.28l2.07 2.07c.08-.34.14-.7.14-1.07C16.5 9.01 14.48 7 12 7c-.37 0-.72.05-1.07.14zM2.01 3.87l2.68 2.68A11.738 11.738 0 001 11.5C2.73 15.89 7 19 12 19c1.52 0 2.98-.29 4.32-.82l3.42 3.42 1.41-1.41L3.42 2.45 2.01 3.87zm7.5 7.5l2.61 2.61c-.04.01-.08.02-.12.02a2.5 2.5 0 01-2.5-2.5c0-.05.01-.08.01-.13zm-3.4-3.4l1.75 1.75a4.6 4.6 0 00-.36 1.78 4.507 4.507 0 006.27 4.14l.98.98c-.88.24-1.8.38-2.75.38a9.77 9.77 0 01-8.82-5.5c.7-1.43 1.72-2.61 2.93-3.53z"/></svg><svg viewBox="0 0 24 24" id="volume-up" xmlns="http://www.w3.org/2000/svg"><path d="M0 0h24v24H0V0z" fill="none"/><path d="M3 9v6h4l5 5V4L7 9H3zm7-.17v6.34L7.83 13H5v-2h2.83L10 8.83zM16.5 12A4.5 4.5 0 0014 7.97v8.05c1.48-.73 2.5-2.25 2.5-4.02zM14 3.23v2.06c2.89.86 5 3.54 5 6.71s-2.11 5.85-5 6.71v2.06c4.01-.91 7-4.49 7-8.77 0-4.28-2.99-7.86-7-8.77z"/></svg><svg viewBox="0 0 16 16" id="warning" xmlns="http://www.w3.org/2000/svg"><path d="M10.115 1.308l5.635 11.269A2.365 2.365 0 0113.634 16H2.365A2.365 2.365 0 01.25 12.577L5.884 1.308a2.365 2.365 0 014.231 0zM8 10.5a1.5 1.5 0 100 3 1.5 1.5 0 000-3zM8 9c.552 0 1-.32 1-.714V4.714C9 4.32 8.552 4 8 4s-1 .32-1 .714v3.572C7 8.68 7.448 9 8 9z" fill-rule="evenodd"/></svg></defs></svg>